<svg width="383" height="431" viewBox="0 0 383 431" fill="none" xmlns="http://www.w3.org/2000/svg">
<path d="M357.63 180.914L342.592 146.707C341.702 144.681 340.713 142.672 339.654 140.739C333.382 129.27 323.089 120.636 310.673 116.426C298.296 112.23 284.879 112.79 272.889 118.004L267.094 120.524L259.689 103.679C259.688 103.677 259.687 103.674 259.686 103.672L254.23 91.262C249.568 80.658 241.042 72.522 230.223 68.355C219.457 64.209 207.745 64.51 197.236 69.201L178.008 77.531C174.451 72.471 170.131 68.61 165.094 66.003C154.573 60.558 141.916 61.016 127.473 67.366L113.714 73.414L95.904 32.9C88.654 16.407 75.198 5.09003 58.988 1.85003C43.749 -1.19597 28.233 3.11503 17.478 13.38C1.33898 28.782 -3.29802 51.908 5.65598 72.275L73.122 226.71C67.473 225.567 61.52 225.044 55.479 225.191C39.788 225.578 25.679 230.568 16.232 238.981C15.612 239.383 15.029 239.859 14.495 240.409C5.00098 250.186 0.32098 262.013 0.95798 274.61C1.75498 290.353 10.748 305.878 26.964 319.508C27.046 319.577 27.129 319.645 27.214 319.711L165.895 428.858C167.689 430.271 169.874 431 172.081 431C173.443 431 174.813 430.722 176.104 430.154L374.776 342.817C378.201 341.312 380.499 338.02 380.732 334.286L381.813 316.974C384.713 270.548 376.351 223.499 357.63 180.914ZM361.853 315.728L361.151 326.959L173.55 409.431L39.715 304.097C28.103 294.301 21.435 283.474 20.935 273.599C20.611 267.197 22.805 261.235 27.461 255.851C27.797 255.584 28.119 255.293 28.425 254.978C40.396 242.649 70.249 241.797 85.839 253.23L120.286 286.314C122.225 288.176 124.72 289.102 127.212 289.102C129.839 289.102 132.462 288.073 134.426 286.029C138.252 282.046 138.124 275.715 134.141 271.889L100.625 239.698L23.977 64.246C17.26 48.966 23.35 35.425 31.29 27.848C37.243 22.166 46.356 19.719 55.072 21.462C64.942 23.435 72.942 30.355 77.599 40.948L135.659 173.02C137.306 176.767 140.972 178.998 144.819 178.998C146.163 178.998 147.529 178.726 148.838 178.15C153.894 175.927 156.191 170.027 153.968 164.971L121.767 91.722L135.527 85.673C144.163 81.878 151.02 81.235 155.906 83.764C159.364 85.554 162.279 89.102 164.569 94.31L198.809 172.198C200.456 175.945 204.122 178.176 207.969 178.176C209.313 178.176 210.679 177.904 211.988 177.328C217.044 175.105 219.341 169.205 217.118 164.149L186.924 95.464L205.244 87.527C205.283 87.51 205.321 87.494 205.359 87.476C210.984 84.955 217.263 84.791 223.04 87.016C228.849 89.253 233.425 93.618 235.926 99.308L276.613 191.873C278.26 195.62 281.926 197.851 285.773 197.851C287.117 197.851 288.483 197.579 289.792 197.003C294.848 194.781 297.145 188.88 294.922 183.824L275.143 138.832L280.865 136.344C296.332 129.617 314.065 135.631 322.109 150.338C322.892 151.769 323.623 153.254 324.282 154.754L339.321 188.962C356.762 228.638 364.554 272.473 361.853 315.728Z" fill="black"/>
<path d="M322.561 313.075L312.696 317.402C307.638 319.62 305.337 325.518 307.555 330.576C309.2 334.327 312.868 336.562 316.718 336.562C318.059 336.562 319.423 336.291 320.729 335.717L330.594 331.39C335.652 329.172 337.953 323.274 335.735 318.216C333.518 313.158 327.62 310.856 322.561 313.075Z" fill="black"/>
<path d="M282.77 330.751L177.417 376.959C172.359 379.177 170.058 385.075 172.276 390.133C173.921 393.884 177.589 396.119 181.439 396.119C182.78 396.119 184.144 395.848 185.45 395.275L290.803 349.066C295.861 346.848 298.162 340.95 295.944 335.892C293.727 330.835 287.83 328.533 282.77 330.751Z" fill="black"/>
</svg>
