<svg width="472" height="502" viewBox="0 0 472 502" fill="none" xmlns="http://www.w3.org/2000/svg">
<path d="M446.63 251.914L431.592 217.707C430.702 215.681 429.713 213.672 428.654 211.739C422.382 200.27 412.089 191.636 399.673 187.426C387.296 183.23 373.879 183.79 361.889 189.004L356.094 191.524L348.689 174.679C348.688 174.677 348.687 174.674 348.686 174.672L343.23 162.262C338.568 151.658 330.042 143.522 319.223 139.355C308.457 135.209 296.745 135.51 286.236 140.201L267.008 148.531C263.451 143.471 259.131 139.61 254.094 137.003C243.573 131.558 230.916 132.016 216.473 138.366L202.714 144.414L184.904 103.9C177.654 87.407 164.198 76.09 147.988 72.85C132.749 69.804 117.233 74.115 106.478 84.38C90.3391 99.782 85.7021 122.908 94.6561 143.275L162.122 297.71C156.473 296.567 150.52 296.044 144.479 296.191C128.788 296.578 114.679 301.568 105.232 309.981C104.612 310.383 104.029 310.859 103.495 311.409C94.0011 321.186 89.3211 333.013 89.9581 345.61C90.7551 361.353 99.7481 376.878 115.964 390.508C116.046 390.577 116.129 390.645 116.214 390.711L254.895 499.858C256.689 501.271 258.874 502 261.081 502C262.443 502 263.813 501.722 265.104 501.154L463.776 413.817C467.201 412.312 469.499 409.02 469.732 405.286L470.813 387.974C473.713 341.548 465.351 294.499 446.63 251.914ZM450.853 386.728L450.151 397.959L262.55 480.431L128.715 375.097C117.103 365.301 110.435 354.474 109.935 344.599C109.611 338.197 111.805 332.235 116.461 326.851C116.797 326.584 117.119 326.293 117.425 325.978C129.396 313.649 159.249 312.797 174.839 324.23L209.286 357.314C211.225 359.176 213.72 360.102 216.212 360.102C218.839 360.102 221.462 359.073 223.426 357.029C227.252 353.046 227.124 346.715 223.141 342.889L189.625 310.698L112.977 135.246C106.26 119.966 112.35 106.425 120.29 98.848C126.243 93.166 135.356 90.719 144.072 92.462C153.942 94.435 161.942 101.355 166.599 111.948L224.659 244.02C226.306 247.767 229.972 249.998 233.819 249.998C235.163 249.998 236.529 249.726 237.838 249.15C242.894 246.927 245.191 241.027 242.968 235.971L210.767 162.722L224.527 156.673C233.163 152.878 240.02 152.235 244.906 154.764C248.364 156.554 251.279 160.102 253.569 165.31L287.809 243.198C289.456 246.945 293.122 249.176 296.969 249.176C298.313 249.176 299.679 248.904 300.988 248.328C306.044 246.105 308.341 240.205 306.118 235.149L275.924 166.464L294.244 158.527C294.283 158.51 294.321 158.494 294.359 158.476C299.984 155.955 306.263 155.791 312.04 158.016C317.849 160.253 322.425 164.618 324.926 170.308L365.613 262.873C367.26 266.62 370.926 268.851 374.773 268.851C376.117 268.851 377.483 268.579 378.792 268.003C383.848 265.781 386.145 259.88 383.922 254.824L364.143 209.832L369.865 207.344C385.332 200.617 403.065 206.631 411.109 221.338C411.892 222.769 412.623 224.254 413.282 225.754L428.321 259.962C445.762 299.638 453.554 343.473 450.853 386.728Z" fill="black"/>
<path d="M411.561 384.075L401.696 388.402C396.638 390.62 394.337 396.518 396.555 401.576C398.2 405.327 401.868 407.562 405.718 407.562C407.059 407.562 408.423 407.291 409.729 406.717L419.594 402.39C424.652 400.172 426.953 394.274 424.735 389.216C422.518 384.158 416.62 381.856 411.561 384.075Z" fill="black"/>
<path d="M371.77 401.751L266.417 447.959C261.359 450.177 259.058 456.075 261.276 461.133C262.921 464.884 266.589 467.119 270.439 467.119C271.78 467.119 273.144 466.848 274.45 466.275L379.803 420.066C384.861 417.848 387.162 411.95 384.944 406.892C382.727 401.835 376.83 399.533 371.77 401.751Z" fill="black"/>
<path d="M112.017 45.197C112.993 49.924 117.156 53.177 121.8 53.177C122.47 53.177 123.151 53.109 123.832 52.969C129.241 51.852 132.72 46.562 131.603 41.153L124.753 7.979C123.637 2.571 118.345 -0.906003 112.938 0.207997C107.529 1.324 104.05 6.614 105.167 12.023L112.017 45.197Z" fill="black"/>
<path d="M26.035 46.9131C28.944 42.2171 27.494 36.0541 22.799 33.1461L15.892 28.8691C11.196 25.9601 5.03304 27.4091 2.12504 32.1051C-0.783957 36.8011 0.666042 42.9641 5.36104 45.8721L12.268 50.1491C13.908 51.1651 15.727 51.6491 17.524 51.6491C20.871 51.6491 24.143 49.9681 26.035 46.9131Z" fill="black"/>
<path d="M45.454 72.245L66.7861 86.276C68.4801 87.39 70.3861 87.922 72.2721 87.922C75.5251 87.922 78.715 86.337 80.637 83.416C83.672 78.802 82.391 72.601 77.777 69.566L56.444 55.535C51.829 52.5 45.629 53.781 42.594 58.395C39.559 63.009 40.84 69.21 45.454 72.245Z" fill="black"/>
<path d="M71.622 135.491C70.505 130.083 65.217 126.605 59.806 127.72L26.632 134.57C21.223 135.686 17.744 140.976 18.861 146.385C19.837 151.112 24 154.365 28.644 154.365C29.314 154.365 29.995 154.297 30.677 154.157L63.851 147.307C69.26 146.19 72.739 140.9 71.622 135.491Z" fill="black"/>
<path d="M96.7751 186.982C92.1601 183.946 85.9591 185.228 82.9251 189.842L64.3111 218.143C61.2761 222.757 62.5571 228.958 67.1711 231.993C68.8651 233.107 70.7711 233.639 72.6571 233.639C75.9101 233.639 79.1001 232.054 81.0211 229.133L99.6351 200.832C102.67 196.218 101.389 190.017 96.7751 186.982Z" fill="black"/>
<path d="M206.355 105.18C207.331 109.906 211.494 113.159 216.138 113.159C216.808 113.159 217.488 113.091 218.171 112.951L240.287 108.384C245.696 107.267 249.175 101.977 248.058 96.568C246.941 91.159 241.652 87.68 236.242 88.797L214.126 93.364C208.717 94.481 205.238 99.771 206.355 105.18Z" fill="black"/>
<path d="M278.34 100.315C279.01 100.315 279.691 100.247 280.373 100.107L287.285 98.68C292.694 97.563 296.173 92.273 295.056 86.864C293.939 81.456 288.652 77.977 283.24 79.093L276.328 80.52C270.919 81.637 267.44 86.927 268.557 92.336C269.533 97.062 273.696 100.315 278.34 100.315Z" fill="black"/>
<path d="M175.907 61.982C177.601 63.096 179.507 63.628 181.393 63.628C184.646 63.628 187.837 62.043 189.757 59.122L208.371 30.821C211.406 26.207 210.125 20.006 205.511 16.971C200.896 13.935 194.695 15.217 191.661 19.831L173.047 48.132C170.012 52.746 171.293 58.947 175.907 61.982Z" fill="black"/>
</svg>
